<svg width="64" height="64" viewBox="0 0 64 64" fill="none" xmlns="http://www.w3.org/2000/svg">
  <rect width="64" height="64" rx="12" fill="url(#gradient7)"/>
  <circle cx="32" cy="32" r="20" fill="white" opacity="0.9"/>
  <path d="M32 16c8.837 0 16 7.163 16 16 0 8.837-7.163 16-16 16s-16-7.163-16-16c0-8.837 7.163-16 16-16zm0 6c-5.523 0-10 4.477-10 10s4.477 10 10 10 10-4.477 10-10-4.477-10-10-10z" fill="#EC4899"/>
  <circle cx="32" cy="32" r="4" fill="#EC4899"/>
  <path d="M32 28v8m-4-4h8" stroke="white" stroke-width="2"/>
  <defs>
    <linearGradient id="gradient7" x1="0" y1="0" x2="64" y2="64" gradientUnits="userSpaceOnUse">
      <stop stop-color="#EC4899"/>
      <stop offset="1" stop-color="#DB2777"/>
    </linearGradient>
  </defs>
</svg>